<svg width="48" height="64" viewBox="0 0 48 64" fill="none" xmlns="http://www.w3.org/2000/svg">
<path d="M5.59843 60.9137C5.67066 62.6387 7.09016 64.0001 8.81643 64.0001H38.8845C40.6108 64.0001 42.0303 62.6387 42.1025 60.9137L44.2498 15.5845H3.45117L5.59843 60.9137ZM30.6522 26.8435C30.6522 26.1212 31.2379 25.5354 31.9605 25.5354H34.0529C34.775 25.5354 35.3612 26.121 35.3612 26.8435V52.7411C35.3612 53.4636 34.7755 54.0492 34.0529 54.0492H31.9605C31.2382 54.0492 30.6522 53.4639 30.6522 52.7411V26.8435ZM21.4962 26.8435C21.4962 26.1212 22.0818 25.5354 22.8043 25.5354H24.8967C25.6188 25.5354 26.2048 26.121 26.2048 26.8435V52.7411C26.2048 53.4636 25.6193 54.0492 24.8967 54.0492H22.8043C22.082 54.0492 21.4962 53.4639 21.4962 52.7411V26.8435ZM12.3398 26.8435C12.3398 26.1212 12.9254 25.5354 13.6479 25.5354H15.7405C16.4627 25.5354 17.0486 26.121 17.0486 26.8435V52.7411C17.0486 53.4636 16.4629 54.0492 15.7405 54.0492H13.6479C12.9256 54.0492 12.3398 53.4639 12.3398 52.7411V26.8435Z" fill="black"/>
<path d="M45.6794 3.29696H31.808V0.674496C31.808 0.302074 31.5061 0 31.1335 0H16.5671C16.1946 0 15.8927 0.302074 15.8927 0.674496V3.2968H2.02114C0.904811 3.2968 0 4.20177 0 5.3181V11.6678H47.7006V5.31825C47.7006 4.20193 46.7957 3.29696 45.6794 3.29696Z" fill="black"/>
</svg>
