<svg width="60" height="60" viewBox="0 0 60 60" fill="none" xmlns="http://www.w3.org/2000/svg">
<g filter="url(#filter0_d_67_163)">
<path d="M15.0073 10C12.2459 10 10.0073 12.5584 10.0073 15.7143V38.5714L10.0074 38.6008C10.0212 41.7432 12.2545 44.2857 15.0073 44.2857H28.7573C29.4477 44.2857 30.0073 43.6461 30.0073 42.8571C30.0073 42.0682 29.4477 41.4286 28.7573 41.4286H15.0073C13.8502 41.4286 12.8767 40.5301 12.5917 39.3103L26.6928 29.3931L30.0073 31.666L47.5073 19.666V28.5714C47.5073 29.3604 48.067 30 48.7573 30C49.4477 30 50.0073 29.3604 50.0073 28.5714V15.7143C50.0073 12.5584 47.7687 10 45.0073 10H15.0073ZM24.2775 27.737L12.5073 36.0149V19.666L24.2775 27.737ZM12.5073 16.334V15.7143C12.5073 14.1363 13.6266 12.8571 15.0073 12.8571H45.0073C46.388 12.8571 47.5073 14.1363 47.5073 15.7143V16.334L30.0073 28.334L12.5073 16.334Z" fill="white"/>
<path d="M45.6241 45.0531C48.1491 45.0531 49.592 42.6046 49.592 39.2692V38.6696C49.592 34.0849 46.6079 30 41.3065 30H41.2191C36.0598 30 32.5073 33.8851 32.5073 39.8064V40.4185C32.5073 46.6271 36.1035 50 40.9021 50H41.0114C42.498 50 43.5582 49.7876 44.1048 49.5003V47.4141C43.4926 47.7264 42.4214 47.9263 41.1535 47.9263H41.0442C37.7103 47.9263 34.6169 45.6777 34.6169 40.3435V39.8938C34.6169 35.1593 37.2622 32.1112 41.2191 32.1112H41.3174C45.1541 32.1112 47.5261 35.1093 47.5261 38.757V39.0943C47.5261 41.8801 46.7172 43.0668 45.9302 43.0668C45.3509 43.0668 44.9027 42.6421 44.9027 41.8676V35.609H42.6401V37.233H42.5635C42.3559 36.3835 41.6454 35.4341 40.1807 35.4341C38.235 35.4341 37.0326 37.0206 37.0326 39.4316V40.9432C37.0326 43.4916 38.2569 45.0406 40.1807 45.0406C41.3612 45.0406 42.4214 44.391 42.7166 43.2042H42.8259C43.121 44.4035 44.3671 45.0531 45.6241 45.0531ZM39.492 40.5184V39.8688C39.492 38.3073 40.0604 37.6077 40.9239 37.6077C41.6672 37.6077 42.3559 38.1574 42.3559 39.6315V40.6808C42.3559 42.3173 41.7219 42.8045 40.9458 42.8045C40.0604 42.8045 39.492 42.1924 39.492 40.5184Z" fill="white"/>
</g>
<defs>
<filter id="filter0_d_67_163" x="0.00732422" y="0" width="60" height="60" filterUnits="userSpaceOnUse" color-interpolation-filters="sRGB">
<feFlood flood-opacity="0" result="BackgroundImageFix"/>
<feColorMatrix in="SourceAlpha" type="matrix" values="0 0 0 0 0 0 0 0 0 0 0 0 0 0 0 0 0 0 127 0" result="hardAlpha"/>
<feOffset/>
<feGaussianBlur stdDeviation="5"/>
<feComposite in2="hardAlpha" operator="out"/>
<feColorMatrix type="matrix" values="0 0 0 0 1 0 0 0 0 1 0 0 0 0 1 0 0 0 0.25 0"/>
<feBlend mode="normal" in2="BackgroundImageFix" result="effect1_dropShadow_67_163"/>
<feBlend mode="normal" in="SourceGraphic" in2="effect1_dropShadow_67_163" result="shape"/>
</filter>
</defs>
</svg>
