<svg width="60" height="60" viewBox="0 0 60 60" fill="none" xmlns="http://www.w3.org/2000/svg">
<path d="M7.5 7.5C3.35786 7.5 0 10.8579 0 15V45L9.68948e-05 45.0385C0.0208499 49.1629 3.37072 52.5 7.5 52.5H28.125C29.1605 52.5 30 51.6605 30 50.625C30 49.5895 29.1605 48.75 28.125 48.75H7.5C5.76431 48.75 4.30404 47.5708 3.87662 45.9698L25.0281 32.9535L30 35.9366L56.25 20.1866V31.875C56.25 32.9105 57.0895 33.75 58.125 33.75C59.1605 33.75 60 32.9105 60 31.875V15C60 10.8579 56.6421 7.5 52.5 7.5H7.5ZM21.4053 30.7798L3.75 41.6446V20.1866L21.4053 30.7798ZM3.75 15.8134V15C3.75 12.9289 5.42893 11.25 7.5 11.25H52.5C54.5711 11.25 56.25 12.9289 56.25 15V15.8134L30 31.5634L3.75 15.8134Z" fill="white"/>
<path d="M53.4252 53.5072C57.2127 53.5072 59.377 50.2936 59.377 45.9158V45.1288C59.377 39.1115 54.9008 33.75 46.9488 33.75H46.8176C39.0787 33.75 33.75 38.8492 33.75 46.6209V47.4243C33.75 55.5731 39.1443 60 46.3421 60H46.5061C48.7359 60 50.3264 59.7213 51.1462 59.3442V56.606C50.228 57.0159 48.6212 57.2783 46.7192 57.2783H46.5553C41.5545 57.2783 36.9144 54.327 36.9144 47.3259V46.7356C36.9144 40.5215 40.8823 36.5209 46.8176 36.5209H46.9652C52.7202 36.5209 56.2781 40.456 56.2781 45.2436V45.6863C56.2781 49.3426 55.0648 50.9002 53.8843 50.9002C53.0153 50.9002 52.3431 50.3428 52.3431 49.3262V41.1118H48.9491V43.2433H48.8343C48.5228 42.1284 47.4571 40.8823 45.26 40.8823C42.3415 40.8823 40.5379 42.9646 40.5379 46.129V48.1129C40.5379 51.4577 42.3743 53.4908 45.26 53.4908C47.0308 53.4908 48.6212 52.6382 49.0639 51.0806H49.2278C49.6705 52.6546 51.5397 53.5072 53.4252 53.5072ZM44.227 47.5554V46.7028C44.227 44.6533 45.0796 43.7352 46.3749 43.7352C47.4898 43.7352 48.5228 44.4566 48.5228 46.3913V47.7686C48.5228 49.9165 47.5718 50.5559 46.4077 50.5559C45.0796 50.5559 44.227 49.7525 44.227 47.5554Z" fill="white"/>
</svg>
