<svg width="60" height="60" viewBox="0 0 60 60" fill="none" xmlns="http://www.w3.org/2000/svg">
<g filter="url(#filter0_d_67_161)">
<path d="M50 30.1222C50 19.009 41.0457 10 30 10C18.9543 10 10 19.009 10 30.1222C10 40.1658 17.3137 48.4904 26.875 50V35.9388H21.7969V30.1222H26.875V25.689C26.875 20.6459 29.8609 17.8602 34.4293 17.8602C36.6175 17.8602 38.9062 18.2533 38.9062 18.2533V23.2052H36.3843C33.8998 23.2052 33.125 24.7563 33.125 26.3476V30.1222H38.6719L37.7852 35.9388H33.125V50C42.6863 48.4904 50 40.1658 50 30.1222Z" fill="white"/>
</g>
<defs>
<filter id="filter0_d_67_161" x="0" y="0" width="60" height="60" filterUnits="userSpaceOnUse" color-interpolation-filters="sRGB">
<feFlood flood-opacity="0" result="BackgroundImageFix"/>
<feColorMatrix in="SourceAlpha" type="matrix" values="0 0 0 0 0 0 0 0 0 0 0 0 0 0 0 0 0 0 127 0" result="hardAlpha"/>
<feOffset/>
<feGaussianBlur stdDeviation="5"/>
<feComposite in2="hardAlpha" operator="out"/>
<feColorMatrix type="matrix" values="0 0 0 0 1 0 0 0 0 1 0 0 0 0 1 0 0 0 0.25 0"/>
<feBlend mode="normal" in2="BackgroundImageFix" result="effect1_dropShadow_67_161"/>
<feBlend mode="normal" in="SourceGraphic" in2="effect1_dropShadow_67_161" result="shape"/>
</filter>
</defs>
</svg>
