<svg width="60" height="60" viewBox="0 0 60 60" fill="none" xmlns="http://www.w3.org/2000/svg">
<path d="M30.0028 0C21.8552 0 20.8327 0.0356256 17.6327 0.181251C14.4389 0.327501 12.2589 0.833125 10.3514 1.575C8.37821 2.34125 6.70444 3.36625 5.03693 5.03438C3.36816 6.70188 2.34315 8.37562 1.57439 10.3481C0.830633 12.2562 0.324378 14.4369 0.180627 17.6294C0.0375001 20.8294 0 21.8525 0 30C0 38.1475 0.036251 39.1669 0.181252 42.3669C0.328129 45.5606 0.833759 47.7406 1.57502 49.6481C2.3419 51.6212 3.36691 53.295 5.03505 54.9625C6.70194 56.6313 8.37571 57.6588 10.3476 58.425C12.2564 59.1669 14.437 59.6725 17.6302 59.8187C20.8302 59.9644 21.8521 60 29.9991 60C38.1473 60 39.1667 59.9644 42.3667 59.8187C45.5605 59.6725 47.743 59.1669 49.6518 58.425C51.6243 57.6588 53.2956 56.6313 54.9624 54.9625C56.6312 53.295 57.6562 51.6213 58.425 49.6488C59.1625 47.7406 59.6687 45.56 59.8187 42.3675C59.9625 39.1675 60 38.1475 60 30C60 21.8525 59.9625 20.83 59.8187 17.63C59.6687 14.4362 59.1625 12.2562 58.425 10.3487C57.6562 8.37562 56.6312 6.70188 54.9624 5.03438C53.2937 3.36563 51.6249 2.34063 49.6499 1.575C47.7374 0.833125 45.5561 0.327501 42.3623 0.181251C39.1623 0.0356256 38.1435 0 29.9934 0H30.0028ZM27.3115 5.40625C28.1103 5.405 29.0016 5.40625 30.0028 5.40625C38.0129 5.40625 38.9623 5.435 42.1254 5.57875C45.0505 5.7125 46.638 6.20125 47.6955 6.61188C49.0955 7.15563 50.0936 7.80562 51.143 8.85562C52.193 9.90562 52.843 10.9056 53.3881 12.3056C53.7987 13.3619 54.2881 14.9494 54.4212 17.8744C54.5649 21.0369 54.5962 21.9869 54.5962 29.9931C54.5962 37.9994 54.5649 38.9494 54.4212 42.1119C54.2874 45.0369 53.7987 46.6244 53.3881 47.6806C52.8443 49.0806 52.193 50.0775 51.143 51.1269C50.093 52.1769 49.0961 52.8269 47.6955 53.3706C46.6392 53.7831 45.0505 54.2706 42.1254 54.4044C38.9629 54.5481 38.0129 54.5794 30.0028 54.5794C21.9921 54.5794 21.0427 54.5481 17.8802 54.4044C14.9552 54.2694 13.3676 53.7806 12.3095 53.37C10.9095 52.8262 9.90948 52.1763 8.85947 51.1263C7.80946 50.0763 7.15945 49.0788 6.61444 47.6781C6.20381 46.6219 5.71443 45.0344 5.58131 42.1094C5.43756 38.9469 5.40881 37.9969 5.40881 29.9856C5.40881 21.9744 5.43756 21.0294 5.58131 17.8669C5.71506 14.9419 6.20381 13.3544 6.61444 12.2969C7.1582 10.8969 7.80946 9.89687 8.85947 8.84687C9.90948 7.79687 10.9095 7.14687 12.3095 6.60187C13.367 6.18937 14.9552 5.70188 17.8802 5.5675C20.6477 5.4425 21.7202 5.405 27.3115 5.39875V5.40625ZM46.0167 10.3875C44.0292 10.3875 42.4167 11.9981 42.4167 13.9862C42.4167 15.9737 44.0292 17.5863 46.0167 17.5863C48.0042 17.5863 49.6168 15.9737 49.6168 13.9862C49.6168 11.9987 48.0042 10.3862 46.0167 10.3862V10.3875ZM30.0028 14.5937C21.4946 14.5937 14.5964 21.4919 14.5964 30C14.5964 38.5081 21.4946 45.4031 30.0028 45.4031C38.511 45.4031 45.4067 38.5081 45.4067 30C45.4067 21.4919 38.5104 14.5937 30.0022 14.5937H30.0028ZM30.0028 20C35.5254 20 40.0029 24.4769 40.0029 30C40.0029 35.5225 35.5254 40 30.0028 40C24.4796 40 20.0027 35.5225 20.0027 30C20.0027 24.4769 24.4796 20 30.0028 20Z" fill="white"/>
</svg>
