<svg width="60" height="60" viewBox="0 0 60 60" fill="none" xmlns="http://www.w3.org/2000/svg">
<g filter="url(#filter0_d_67_162)">
<path d="M30.0092 10.0046C24.5775 10.0046 23.8958 10.0284 21.7624 10.1255C19.6333 10.223 18.1799 10.5601 16.9082 11.0546C15.5928 11.5655 14.477 12.2488 13.3653 13.3609C12.2528 14.4726 11.5694 15.5884 11.0569 16.9034C10.5611 18.1755 10.2236 19.6292 10.1277 21.7576C10.0323 23.8909 10.0073 24.573 10.0073 30.0046C10.0073 35.4363 10.0315 36.1159 10.1282 38.2492C10.2261 40.3784 10.5632 41.8317 11.0573 43.1034C11.5686 44.4188 12.2519 45.5346 13.364 46.6463C14.4753 47.7588 15.5911 48.4438 16.9057 48.9546C18.1782 49.4492 19.632 49.7863 21.7608 49.8838C23.8941 49.9809 24.5754 50.0046 30.0067 50.0046C35.4388 50.0046 36.1184 49.9809 38.2518 49.8838C40.381 49.7863 41.836 49.4492 43.1085 48.9546C44.4235 48.4438 45.5377 47.7588 46.649 46.6463C47.7615 45.5346 48.4448 44.4188 48.9573 43.1038C49.449 41.8317 49.7865 40.378 49.8865 38.2496C49.9823 36.1163 50.0073 35.4363 50.0073 30.0046C50.0073 24.573 49.9823 23.8913 49.8865 21.758C49.7865 19.6288 49.449 18.1755 48.9573 16.9038C48.4448 15.5884 47.7615 14.4726 46.649 13.3609C45.5364 12.2484 44.4239 11.5651 43.1073 11.0546C41.8322 10.5601 40.3781 10.223 38.2489 10.1255C36.1155 10.0284 35.4363 10.0046 30.0029 10.0046H30.0092ZM28.215 13.6088C28.7475 13.608 29.3417 13.6088 30.0092 13.6088C35.3493 13.6088 35.9822 13.628 38.091 13.7238C40.041 13.813 41.0993 14.1388 41.8043 14.4126C42.7377 14.7751 43.4031 15.2084 44.1027 15.9084C44.8027 16.6084 45.236 17.2751 45.5994 18.2084C45.8731 18.9126 46.1994 19.9709 46.2881 21.9209C46.384 24.0292 46.4048 24.6626 46.4048 30.0001C46.4048 35.3376 46.384 35.9709 46.2881 38.0792C46.199 40.0292 45.8731 41.0876 45.5994 41.7917C45.2369 42.7251 44.8027 43.3896 44.1027 44.0892C43.4027 44.7892 42.7381 45.2226 41.8043 45.5851C41.1001 45.8601 40.041 46.1851 38.091 46.2742C35.9826 46.3701 35.3493 46.3909 30.0092 46.3909C24.6687 46.3909 24.0358 46.3701 21.9274 46.2742C19.9774 46.1842 18.9191 45.8584 18.2137 45.5846C17.2803 45.2221 16.6136 44.7888 15.9136 44.0888C15.2136 43.3888 14.7803 42.7238 14.417 41.7901C14.1432 41.0859 13.8169 40.0276 13.7282 38.0776C13.6324 35.9692 13.6132 35.3359 13.6132 29.9951C13.6132 24.6542 13.6324 24.0242 13.7282 21.9159C13.8174 19.9659 14.1432 18.9076 14.417 18.2026C14.7795 17.2692 15.2136 16.6026 15.9136 15.9026C16.6136 15.2026 17.2803 14.7692 18.2137 14.4059C18.9187 14.1309 19.9774 13.8059 21.9274 13.7163C23.7725 13.633 24.4875 13.608 28.215 13.6038V13.6088ZM40.6851 16.9296C39.3601 16.9296 38.2851 18.0034 38.2851 19.3288C38.2851 20.6538 39.3601 21.7288 40.6851 21.7288C42.0102 21.7288 43.0852 20.6538 43.0852 19.3288C43.0852 18.0038 42.0102 16.9288 40.6851 16.9288V16.9296ZM30.0092 19.7338C24.3371 19.7338 19.7383 24.3326 19.7383 30.0046C19.7383 35.6767 24.3371 40.2734 30.0092 40.2734C35.6813 40.2734 40.2785 35.6767 40.2785 30.0046C40.2785 24.3326 35.6809 19.7338 30.0088 19.7338H30.0092ZM30.0092 23.338C33.6909 23.338 36.6759 26.3226 36.6759 30.0046C36.6759 33.6863 33.6909 36.6713 30.0092 36.6713C26.3271 36.6713 23.3425 33.6863 23.3425 30.0046C23.3425 26.3226 26.3271 23.338 30.0092 23.338V23.338Z" fill="white"/>
</g>
<defs>
<filter id="filter0_d_67_162" x="0.00732422" y="0.00463867" width="60" height="60" filterUnits="userSpaceOnUse" color-interpolation-filters="sRGB">
<feFlood flood-opacity="0" result="BackgroundImageFix"/>
<feColorMatrix in="SourceAlpha" type="matrix" values="0 0 0 0 0 0 0 0 0 0 0 0 0 0 0 0 0 0 127 0" result="hardAlpha"/>
<feOffset/>
<feGaussianBlur stdDeviation="5"/>
<feComposite in2="hardAlpha" operator="out"/>
<feColorMatrix type="matrix" values="0 0 0 0 1 0 0 0 0 1 0 0 0 0 1 0 0 0 0.25 0"/>
<feBlend mode="normal" in2="BackgroundImageFix" result="effect1_dropShadow_67_162"/>
<feBlend mode="normal" in="SourceGraphic" in2="effect1_dropShadow_67_162" result="shape"/>
</filter>
</defs>
</svg>
