<svg width="55" height="56" viewBox="0 0 55 56" fill="none" xmlns="http://www.w3.org/2000/svg">
<path d="M15.4291 56C14.1078 56 12.9906 55.5427 12.0777 54.6282C11.1648 53.7136 10.7083 52.6023 10.7083 51.2941C10.7083 49.9859 11.1702 48.8799 12.0939 47.976C13.0177 47.0722 14.1402 46.6202 15.4615 46.6202C16.7828 46.6202 17.9 47.0775 18.8129 47.9921C19.7258 48.9066 20.1823 50.018 20.1823 51.3262C20.1823 52.6344 19.7204 53.7405 18.7966 54.6443C17.8729 55.5481 16.7504 56 15.4291 56ZM47.4949 56C46.1736 56 45.0565 55.5427 44.1435 54.6282C43.2306 53.7136 42.7742 52.6023 42.7742 51.2941C42.7742 49.9859 43.2361 48.8799 44.1598 47.976C45.0835 47.0722 46.2061 46.6202 47.5274 46.6202C48.8487 46.6202 49.9658 47.0775 50.8787 47.9921C51.7916 48.9066 52.2481 50.018 52.2481 51.3262C52.2481 52.6344 51.7863 53.7405 50.8625 54.6443C49.9388 55.5481 48.8162 56 47.4949 56ZM13.7232 11.1952L20.4761 26.6501H42.9152C43.0915 26.6501 43.2483 26.6064 43.3854 26.5191C43.5226 26.4319 43.6401 26.3106 43.7381 26.1554L49.7974 12.0099C49.915 11.7966 49.9248 11.6074 49.8268 11.4426C49.7289 11.2777 49.5623 11.1952 49.3272 11.1952H13.7232ZM12.06 7.26187H52.9651C53.7565 7.26187 54.3325 7.54892 54.6929 8.12301C55.0534 8.69715 55.0965 9.30619 54.8222 9.95013L47.371 27.6515C46.9903 28.5316 46.413 29.2403 45.6392 29.7776C44.8654 30.3148 43.9868 30.5835 43.0034 30.5835H19.0245L15.6392 36.379C15.4824 36.6118 15.4776 36.864 15.6245 37.1356C15.7715 37.4071 15.9919 37.5429 16.2857 37.5429H50.2617C50.8255 37.5429 51.2975 37.7296 51.6778 38.103C52.058 38.4764 52.2481 38.94 52.2481 39.4937C52.2481 40.0474 52.058 40.5162 51.6778 40.9002C51.2975 41.2842 50.8255 41.4763 50.2617 41.4763H16.3621C14.4266 41.4763 13.0102 40.6908 12.1129 39.1198C11.2157 37.5488 11.2431 35.9797 12.1952 34.4123L16.4034 27.2552L6.27693 3.93337H1.98657C1.42271 3.93337 0.950684 3.74667 0.570505 3.37329C0.190172 2.99986 0 2.53631 0 1.98264C0 1.42893 0.190147 0.960059 0.570428 0.576037C0.950659 0.192015 1.42269 0 1.98649 0H7.27002C7.79114 0 8.23879 0.136743 8.61296 0.410223C8.98713 0.683703 9.29178 1.04349 9.5269 1.48959L12.06 7.26187Z" fill="white"/>
</svg>
