<svg width="51" height="61" viewBox="0 0 51 61" fill="none" xmlns="http://www.w3.org/2000/svg">
<g filter="url(#filter0_d_67_159)">
<path d="M27.9654 18.577C29.3326 18.938 30.589 19.8429 31.574 21.1758C32.5591 22.5088 33.2278 24.2091 33.4945 26.0593M27.9654 11C30.8058 11.427 33.4548 13.1484 35.4769 15.8815C37.4992 18.6146 38.7745 22.197 39.0937 26.0404M22.6139 33.4717C20.932 31.1956 19.6039 28.6219 18.6296 25.876C18.5458 25.6398 18.5039 25.5217 18.4718 25.3723C18.3574 24.8412 18.4395 24.1891 18.6775 23.7394C18.7445 23.6128 18.8245 23.5045 18.9845 23.288C19.4739 22.6257 19.7186 22.2946 19.8785 21.9617C20.4818 20.706 20.4818 19.0872 19.8785 17.8315C19.7186 17.4985 19.4739 17.1674 18.9845 16.5052L18.7117 16.136C17.9678 15.1293 17.5959 14.626 17.1964 14.3526C16.4019 13.8088 15.4637 13.8088 14.6692 14.3526C14.2698 14.626 13.8978 15.1293 13.1539 16.136L12.9333 16.4346C12.1919 17.4379 11.8212 17.9395 11.5381 18.6215C11.224 19.3782 10.9981 20.5536 11 21.4216C11.0017 22.2038 11.1139 22.7384 11.3381 23.8076C12.5433 29.5537 14.8172 34.9758 18.1599 39.4991C21.5025 44.0225 25.5092 47.0998 29.7553 48.7307C30.5453 49.0342 30.9405 49.1859 31.5185 49.1882C32.1599 49.1908 33.0284 48.8851 33.5876 48.46C34.0917 48.0768 34.4624 47.5752 35.2037 46.572L35.4243 46.2735C36.1683 45.2667 36.5402 44.7634 36.7422 44.2228C37.1441 43.1478 37.1441 41.8781 36.7422 40.8029C36.5402 40.2624 36.1683 39.759 35.4243 38.7523L35.1516 38.3832C34.6622 37.7209 34.4176 37.3898 34.1715 37.1733C33.2436 36.3569 32.0473 36.3569 31.1194 37.1733C30.8733 37.3898 30.6286 37.7209 30.1393 38.3832C29.9793 38.5997 29.8993 38.708 29.8057 38.7986C29.4734 39.1208 28.9916 39.232 28.5991 39.077C28.4886 39.0335 28.4014 38.9768 28.2269 38.8633C26.1978 37.5449 24.2959 35.7477 22.6139 33.4717Z" fill="white"/>
<path d="M27.9654 18.577C29.3326 18.938 30.589 19.8429 31.574 21.1758C32.5591 22.5088 33.2278 24.2091 33.4945 26.0593M27.9654 11C30.8058 11.427 33.4548 13.1484 35.4769 15.8815C37.4992 18.6146 38.7745 22.197 39.0937 26.0404M22.6139 33.4717C20.932 31.1956 19.6039 28.6219 18.6296 25.876C18.5458 25.6398 18.5039 25.5217 18.4718 25.3723C18.3574 24.8412 18.4395 24.1891 18.6775 23.7394C18.7445 23.6128 18.8245 23.5045 18.9845 23.288C19.4739 22.6257 19.7186 22.2946 19.8785 21.9617C20.4818 20.706 20.4818 19.0872 19.8785 17.8315C19.7186 17.4985 19.4739 17.1674 18.9845 16.5052L18.7117 16.136C17.9678 15.1293 17.5959 14.626 17.1964 14.3526C16.4019 13.8088 15.4637 13.8088 14.6692 14.3526C14.2698 14.626 13.8978 15.1293 13.1539 16.136L12.9333 16.4346C12.1919 17.4379 11.8212 17.9395 11.5381 18.6215C11.224 19.3782 10.9981 20.5536 11 21.4216C11.0017 22.2038 11.1139 22.7384 11.3381 23.8076C12.5433 29.5537 14.8172 34.9758 18.1599 39.4991C21.5025 44.0225 25.5092 47.0998 29.7553 48.7307C30.5453 49.0342 30.9405 49.1859 31.5185 49.1882C32.1599 49.1908 33.0284 48.8851 33.5876 48.46C34.0917 48.0768 34.4624 47.5752 35.2037 46.572L35.4243 46.2735C36.1683 45.2667 36.5402 44.7634 36.7422 44.2228C37.1441 43.1478 37.1441 41.8781 36.7422 40.8029C36.5402 40.2624 36.1683 39.759 35.4243 38.7523L35.1516 38.3832C34.6622 37.7209 34.4176 37.3898 34.1715 37.1733C33.2436 36.3569 32.0473 36.3569 31.1194 37.1733C30.8733 37.3898 30.6286 37.7209 30.1393 38.3832C29.9793 38.5997 29.8993 38.708 29.8057 38.7986C29.4734 39.1208 28.9916 39.232 28.5991 39.077C28.4886 39.0335 28.4014 38.9768 28.2269 38.8633C26.1978 37.5449 24.2959 35.7477 22.6139 33.4717Z" stroke="#B3B3B3" stroke-width="2" stroke-linecap="round" stroke-linejoin="round"/>
</g>
<defs>
<filter id="filter0_d_67_159" x="0" y="-0.00012207" width="50.0938" height="60.1883" filterUnits="userSpaceOnUse" color-interpolation-filters="sRGB">
<feFlood flood-opacity="0" result="BackgroundImageFix"/>
<feColorMatrix in="SourceAlpha" type="matrix" values="0 0 0 0 0 0 0 0 0 0 0 0 0 0 0 0 0 0 127 0" result="hardAlpha"/>
<feOffset/>
<feGaussianBlur stdDeviation="5"/>
<feComposite in2="hardAlpha" operator="out"/>
<feColorMatrix type="matrix" values="0 0 0 0 1 0 0 0 0 1 0 0 0 0 1 0 0 0 0.25 0"/>
<feBlend mode="normal" in2="BackgroundImageFix" result="effect1_dropShadow_67_159"/>
<feBlend mode="normal" in="SourceGraphic" in2="effect1_dropShadow_67_159" result="shape"/>
</filter>
</defs>
</svg>
